name rise30.6535peak61.5555fall82.9339.mot
datacolumns 19
datarows 20
range 4.36164800000000 4.39331100000000
endheader
time	ground_force1_vx	ground_force1_vy	ground_force1_vz	ground_force1_px	ground_force1_py	ground_force1_pz	ground_force2_vx	ground_force2_vy	ground_force2_vz	ground_force2_px	ground_force2_py	ground_force2_pz	ground_torque1_x	ground_torque1_y	ground_torque1_z	ground_torque2_x	ground_torque2_y	ground_torque2_z	
4.36164800000000	-7.40625400000000	40.22468900000000	-12.23299700000000	0.30144900000000	0.00000000000000	0.10309200000000	-54.91778300000000	809.35838500000000	-48.65183200000000	0.12102100000000	0.00000000000000	-0.07361500000000	0.00000000000000	-7.60049600000000	0.00000000000000	0.00000000000000	-17.65445700000000	0.00000000000000	
4.36331100000000	-8.06304000000000	47.02605700000000	-13.77595600000000	0.30709700000000	0.00000000000000	0.10405300000000	-55.83809000000000	806.86563400000000	-48.42351000000000	0.12000100000000	0.00000000000000	-0.07353600000000	0.00000000000000	-8.67818500000000	0.00000000000000	0.00000000000000	-17.64845600000000	0.00000000000000	
4.36498000000000	-8.56332200000000	53.88499100000000	-15.18540200000000	0.31227900000000	0.00000000000000	0.10493800000000	-56.76927100000000	804.22482600000001	-48.17876500000000	0.11898200000000	0.00000000000000	-0.07345600000000	0.00000000000000	-9.69563900000000	0.00000000000000	0.00000000000000	-17.64356300000000	0.00000000000000	
4.36664300000000	-8.88667000000000	60.71222400000000	-16.42908800000000	0.31706100000000	0.00000000000000	0.10575600000000	-57.71025700000000	801.43276400000002	-47.91733200000000	0.11796300000000	0.00000000000000	-0.07337400000000	0.00000000000000	-10.63032900000000	0.00000000000000	0.00000000000000	-17.63963600000000	0.00000000000000	
4.36831100000000	-9.02132100000000	67.44159000000001	-17.48551200000000	0.32149600000000	0.00000000000000	0.10651800000000	-58.65988100000000	798.48625700000002	-47.63895600000000	0.11694700000000	0.00000000000000	-0.07329100000000	0.00000000000000	-11.46612400000000	0.00000000000000	0.00000000000000	-17.63651600000000	0.00000000000000	
4.36997700000000	-8.96399900000000	74.03196800000001	-18.34408300000000	0.32562800000000	0.00000000000000	0.10723000000000	-59.61687300000000	795.38213399999995	-47.34339200000000	0.11593200000000	0.00000000000000	-0.07320600000000	0.00000000000000	-12.19361600000000	0.00000000000000	0.00000000000000	-17.63402600000000	0.00000000000000	
4.37165100000000	-8.71907000000000	80.46684200000000	-19.00436400000000	0.32949400000000	0.00000000000000	0.10789900000000	-60.57986300000000	792.11724800000002	-47.03040800000000	0.11491900000000	0.00000000000000	-0.07312000000000	0.00000000000000	-12.80985200000000	0.00000000000000	0.00000000000000	-17.63197600000000	0.00000000000000	
4.37331400000000	-8.29721500000000	86.75190200000000	-19.47460600000000	0.33312400000000	0.00000000000000	0.10852800000000	-61.54738300000000	788.68849200000000	-46.69979000000000	0.11391000000000	0.00000000000000	-0.07303300000000	0.00000000000000	-13.31757300000000	0.00000000000000	0.00000000000000	-17.63015800000000	0.00000000000000	
4.37497600000000	-7.71382400000000	92.91124000000001	-19.76983400000000	0.33654300000000	0.00000000000000	0.10912300000000	-62.51787000000000	785.09280699999999	-46.35133500000000	0.11290500000000	0.00000000000000	-0.07294400000000	0.00000000000000	-13.72411300000000	0.00000000000000	0.00000000000000	-17.62834800000000	0.00000000000000	
4.37664600000000	-6.98726700000000	98.98268100000000	-19.90970000000000	0.33977400000000	0.00000000000000	0.10968800000000	-63.48966300000000	781.32719699999996	-45.98486400000000	0.11190300000000	0.00000000000000	-0.07285400000000	0.00000000000000	-14.04010800000000	0.00000000000000	0.00000000000000	-17.62631000000000	0.00000000000000	
4.37832700000000	-6.13723600000000	105.01280400000000	-19.91634000000000	0.34283500000000	0.00000000000000	0.11022400000000	-64.46100900000000	777.38873699999999	-45.60021400000000	0.11090700000000	0.00000000000000	-0.07276200000000	0.00000000000000	-14.27815900000000	0.00000000000000	0.00000000000000	-17.62379200000000	0.00000000000000	
4.37997700000000	-5.18325600000000	111.05209200000000	-19.81239500000000	0.34574100000000	0.00000000000000	0.11073500000000	-65.43006699999999	773.27458799999999	-45.19724700000000	0.10991700000000	0.00000000000000	-0.07266900000000	0.00000000000000	-14.45155700000000	0.00000000000000	0.00000000000000	-17.62053000000000	0.00000000000000	
4.38164400000000	-4.14346800000000	117.15059900000000	-19.61933100000000	0.34850600000000	0.00000000000000	0.11122300000000	-66.39490900000000	768.98201200000005	-44.77584600000000	0.10893200000000	0.00000000000000	-0.07257400000000	0.00000000000000	-14.57317900000000	0.00000000000000	0.00000000000000	-17.61624500000000	0.00000000000000	
4.38331200000000	-3.03372800000000	123.35436300000001	-19.35614300000000	0.35114200000000	0.00000000000000	0.11169000000000	-67.35352500000000	764.50838399999998	-44.33592400000000	0.10795400000000	0.00000000000000	-0.07247700000000	0.00000000000000	-14.65459600000000	0.00000000000000	0.00000000000000	-17.61065100000000	0.00000000000000	
4.38498200000000	-1.86703700000000	129.70272700000001	-19.03846900000000	0.35365800000000	0.00000000000000	0.11213700000000	-68.30382700000000	759.85120600000005	-43.87741800000000	0.10698400000000	0.00000000000000	-0.07237900000000	0.00000000000000	-14.70544100000000	0.00000000000000	0.00000000000000	-17.60344600000000	0.00000000000000	
4.38664700000000	-0.65328900000000	136.22659999999999	-18.67811700000000	0.35606400000000	0.00000000000000	0.11256700000000	-69.24365500000000	755.00812399999995	-43.40029700000000	0.10602200000000	0.00000000000000	-0.07227800000000	0.00000000000000	-14.73303400000000	0.00000000000000	0.00000000000000	-17.59432300000000	0.00000000000000	
4.38831100000000	0.60070500000000	142.94763200000000	-18.28295600000000	0.35836600000000	0.00000000000000	0.11297900000000	-70.17077800000000	749.97694400000000	-42.90456100000000	0.10506900000000	0.00000000000000	-0.07217600000000	0.00000000000000	-14.74224600000000	0.00000000000000	0.00000000000000	-17.58296500000000	0.00000000000000	
4.38997500000000	1.89096200000000	149.87818999999999	-17.85713200000000	0.36057000000000	0.00000000000000	0.11337700000000	-71.08290700000001	744.75564599999996	-42.39024200000000	0.10412500000000	0.00000000000000	-0.07207200000000	0.00000000000000	-14.73558100000000	0.00000000000000	0.00000000000000	-17.56904500000000	0.00000000000000	
4.39164800000000	3.21591100000000	157.02199600000000	-17.40151400000000	0.36268300000000	0.00000000000000	0.11375900000000	-71.97769400000000	739.34240499999999	-41.85740700000000	0.10319100000000	0.00000000000000	-0.07196600000000	0.00000000000000	-14.71341500000000	0.00000000000000	0.00000000000000	-17.55223300000000	0.00000000000000	
4.39331100000000	4.57586400000000	164.37525400000001	-16.91431000000000	0.36470800000000	0.00000000000000	0.11412800000000	-72.85274300000000	733.73560399999997	-41.30616100000000	0.10226800000000	0.00000000000000	-0.07185800000000	0.00000000000000	-14.67436000000000	0.00000000000000	0.00000000000000	-17.53219100000000	0.00000000000000	
